<?xml version="1.0" encoding="UTF-8" standalone="no"?>
<!-- Created with Inkscape (http://www.inkscape.org/) -->

<svg
   width="38.519943mm"
   height="19.178024mm"
   viewBox="0 0 38.519943 19.178024"
   version="1.1"
   id="svg5"
   inkscape:version="1.1.2 (0a00cf5339, 2022-02-04)"
   sodipodi:docname="uno.svg"
   xmlns:inkscape="http://www.inkscape.org/namespaces/inkscape"
   xmlns:sodipodi="http://sodipodi.sourceforge.net/DTD/sodipodi-0.dtd"
   xmlns="http://www.w3.org/2000/svg"
   xmlns:svg="http://www.w3.org/2000/svg">
  <sodipodi:namedview
     id="namedview7"
     pagecolor="#505050"
     bordercolor="#eeeeee"
     borderopacity="1"
     inkscape:pageshadow="0"
     inkscape:pageopacity="0"
     inkscape:pagecheckerboard="0"
     inkscape:document-units="mm"
     showgrid="false"
     inkscape:zoom="8"
     inkscape:cx="62.4375"
     inkscape:cy="34.25"
     inkscape:window-width="1918"
     inkscape:window-height="1031"
     inkscape:window-x="0"
     inkscape:window-y="0"
     inkscape:window-maximized="1"
     inkscape:current-layer="layer2"
     fit-margin-top="0"
     fit-margin-left="0"
     fit-margin-right="0"
     fit-margin-bottom="0" />
  <defs
     id="defs2" />
  <g
     inkscape:groupmode="layer"
     id="layer2"
     inkscape:label="Layer 2"
     transform="translate(-75.615341,-146.348)">
    <path
       id="path151-3"
       style="fill:#2b0000;stroke-width:0.264583"
       d="m 87.989485,148.63055 c -1.243965,0.65788 -2.489455,1.31289 -3.732422,1.97265 0.523969,3.11802 0.805002,6.40842 -0.158203,9.47071 -0.170197,0.47759 -0.374796,1.23904 -0.896485,0.59765 -1.111385,-1.08473 -1.341184,-2.74013 -1.697601,-4.18525 -0.467288,-2.56149 -0.683973,-4.67441 0.251492,-7.13545 0.256428,-0.65845 -0.831277,0.26709 -1.180742,0.32278 -1.213743,0.59792 -2.205756,0.61005 -3.420024,1.20691 -0.01659,2.99314 0.5584,5.94563 0.964951,8.90123 0.195522,1.39227 0.436494,2.96551 1.693252,3.82142 0.915708,0.78029 2.313012,1.15707 3.382367,0.3787 1.070564,-0.77925 2.215337,-1.44934 3.371465,-2.11849 1.613675,-1.71438 2.212235,-4.15324 2.308668,-6.44966 -0.06713,-1.82709 -0.101196,-3.65481 -0.02005,-5.48065 -0.02373,-0.55657 -0.263567,-0.68824 -0.326144,-1.24108 z"
       sodipodi:nodetypes="ccccccccccsccccc" />
    <path
       id="path161-6"
       style="fill:#2b0000;stroke-width:0.264583"
       d="m 93.627,146.67854 c -1.163934,0.53257 -2.353716,1.05174 -3.609371,1.44531 -0.276779,3.22859 -0.715701,7.27976 -1.262275,11.0193 -0.105291,0.82419 -0.08158,1.68393 -0.405691,2.46312 -1.184505,0.73769 -2.300248,1.69981 -3.443388,2.5416 -0.255554,0.32108 -0.106213,0.48565 0.208067,0.53982 0.394467,-0.19625 0.524387,0.64273 0,0 0.24835,-0.19524 1.424071,-0.24269 0.998085,0.18963 1.381967,-0.15189 2.440027,-1.17782 3.655658,-1.76154 1.284776,-0.73464 2.942681,-1.49897 3.171421,-3.15013 0.152964,-0.59458 0.154314,-1.319 0.197264,-1.85157 0.80844,1.56558 1.621,3.13656 2.54827,4.63449 0.46197,0.66136 1.01164,1.81105 1.99665,1.4827 1.05733,-0.75968 1.9967,-1.77223 3.18946,-2.30273 0.0104,-1.14665 0.0217,-2.49904 -0.0143,-2.66831 0.0609,-1.66857 0.20303,-3.56884 0.32872,-5.1481 0.3594,-2.52754 0.84753,-4.5838 1.91001,-6.91022 -1.67657,0.78812 -3.18025,1.19925 -4.85728,1.98639 -0.46586,2.16972 -1.12826,4.31346 -1.25195,6.54102 -1.20474,-2.28894 -2.03607,-4.80005 -2.38378,-7.39866 -0.16844,-0.58243 -0.177,-1.35285 -0.74903,-1.69314 -0.0755,0.0137 -0.15104,0.0273 -0.22657,0.041 z"
       sodipodi:nodetypes="sccccccccccccccccccccss" />
    <path
       id="path189-6"
       style="fill:#2b0000;stroke-width:0.264583"
       d="m 111.19856,147.82381 c -0.67168,-0.0743 -1.10425,0.79692 -1.78047,0.44959 -1.32776,-0.26015 -2.6587,0.22243 -3.74297,0.97228 -1.51131,0.75647 -3.05251,1.62589 -4.0244,3.0577 -1.10255,1.58278 -0.79865,3.6099 -0.7549,5.42277 0.37412,1.83682 1.66316,3.2872 2.77776,4.7243 1.03,1.1974 2.87018,1.09481 4.13134,0.33728 1.17266,-0.62118 2.30863,-1.33609 3.40145,-2.08111 1.06443,-1.53692 1.39286,-3.43715 2.06018,-5.15753 0.50773,-1.85056 1.13891,-3.83079 0.59627,-5.74546 -0.37401,-1.11655 -1.47975,-1.96105 -2.66426,-1.97982 z m -2.34375,3.45703 c 1.17473,0.72064 0.86879,2.32023 0.64752,3.45531 -0.34736,1.78186 -1.03993,3.44878 -1.65924,5.12476 -1.09056,-0.85941 -1.85723,-2.10314 -2.39063,-3.37109 -0.37299,-1.24279 -0.22477,-2.59236 -0.07,-3.86126 0.1363,-0.44757 0.31483,-1.28616 0.92739,-1.12311 -0.19161,0.4524 -0.97284,1.45951 -0.019,0.83433 0.82221,-0.36901 1.64423,-0.73845 2.4663,-1.10777 l 0.0894,0.0447 z" />
    <path
       id="path175-7"
       style="fill:#2b0000;stroke-width:0.264583"
       d="m 98.113578,147.67952 c -0.675353,0.38596 -0.638018,0.34678 -1.959228,1.10058 0.50265,0.82955 1.29777,1.60157 2.34023,1.53125 0.46614,0.058 1.00926,-0.12121 1.42735,0.0918 0.25057,0.87849 0.86995,0.20419 1.39177,-0.0603 1.07833,-0.62129 2.15728,-1.24153 3.23518,-1.86357 -0.30362,-0.98775 -1.54013,-1.59876 -2.33008,-1.54102 -0.78995,0.0577 -1.06915,-0.14789 -1.49319,-0.52142 -0.42404,-0.37353 -1.936672,0.87672 -2.612032,1.26268 z"
       sodipodi:nodetypes="zccccczzz" />
    <path
       id="path179-5"
       style="fill:#2b0000;stroke-width:0.264583"
       d="m 87.320364,161.65315 c -1.40041,0.92184 -2.799886,1.84511 -4.201172,2.76562 0.961002,0.33332 1.924828,0.6494 2.871316,1.00291 0.703171,0.19528 1.406989,-0.23655 2.095481,-0.15916 0.451557,0.0508 0.713228,0.4958 1.1969,0.10277 1.321115,-1.07352 2.909035,-1.96624 4.361691,-2.94847 -0.678244,-0.069 -1.3918,-0.005 -1.958982,-0.39844 -0.860464,-0.48518 -1.780043,0.27504 -2.652344,0.0137 -0.445825,-0.30288 -1.00291,-0.29054 -1.472656,-0.53711 -0.08008,0.0527 -0.160156,0.10547 -0.240234,0.15821 z"
       sodipodi:nodetypes="cccsscccccc" />
    <path
       id="path181-3"
       style="fill:#2b0000;stroke-width:0.264583"
       d="m 75.889485,150.82195 c -0.517875,0.19336 -0.124083,1.1271 -0.223377,1.55943 0.383517,-0.21542 1.093845,-0.16753 1.588319,0.0761 0.772927,0.38086 2.933527,-0.0316 3.227245,-0.1297 0.582836,-0.21517 0.381773,-0.17832 1.092939,-0.71309 0.891145,-0.67011 1.821247,-1.19136 2.733233,-1.78495 -0.912268,-0.6207 -1.986278,-1.3419 -3.077981,-0.95062 -0.526746,0.18879 -1.054793,-0.16167 -1.577476,-0.25389 -1.445236,0.66412 -2.342762,1.66048 -3.762902,2.19669 z"
       sodipodi:nodetypes="ccscscsccc" />
    <path
       id="path185-5"
       style="fill:#2b0000;stroke-width:0.264583"
       d="m 86.807844,148.29656 c -1.312648,0.77644 -2.623674,1.55563 -3.9375,2.33008 0.506018,0.65736 1.132079,1.47953 2.076172,1.29883 0.482134,-0.0322 0.997287,-0.17604 1.351563,0.27148 1.429594,-0.89429 2.858444,-1.78977 4.287109,-2.68554 -0.610554,-0.59831 -1.338878,-1.16114 -2.238281,-1.04688 -0.33344,0.0711 -0.871312,0.25926 -0.951422,-0.2315 -0.08638,-0.4344 -0.367263,2.9e-4 -0.587641,0.0635 z" />
  </g>
  <g
     inkscape:label="Layer 1"
     inkscape:groupmode="layer"
     id="layer1"
     transform="translate(-75.615341,-146.348)">
    <path
       style="fill:#ffcc00;stroke-width:0.264583"
       id="path151"
       d="m 78.285422,151.00623 c -0.03461,1.27265 0.109009,2.53879 0.287137,3.79666 0.177669,1.6833 0.473562,3.35186 0.707917,5.02795 0.193071,0.97504 0.268999,2.09104 1.053983,2.80388 0.667595,0.64306 1.613434,1.29151 2.581132,1.0127 1.240627,-0.63818 2.402639,-1.42793 3.608282,-2.13226 1.25696,-1.04347 1.795879,-2.67777 2.169674,-4.21702 0.4995,-2.13917 0.01863,-4.33578 0.197027,-6.5003 0.0394,-0.6131 0.07715,-1.36028 -0.09596,-1.87923 -1.123894,0.59338 -2.247789,1.18675 -3.371683,1.78013 0.416299,2.32207 0.571073,4.70342 0.280093,7.05027 -0.213314,1.88144 -0.871793,3.86511 -2.444564,5.04488 0.92943,-0.52819 1.939786,-0.90061 2.867925,-1.42829 -0.519872,0.0884 -1.068193,0.3554 -1.605404,0.0914 -1.017003,-0.29368 -1.761477,-1.14774 -2.109706,-2.12306 -1.018394,-2.6179 -1.344104,-5.49472 -1.038619,-8.28137 0.07048,-0.57807 0.191445,-1.15137 0.383614,-1.7017 -1.156826,0.55157 -2.31463,1.10493 -3.470844,1.65537 z"
       sodipodi:nodetypes="cccscsssscssccscscsscccscccsccssscscsccscsscsscsccc" />
    <path
       style="fill:#ffcc00;stroke-width:0.264583"
       id="path161"
       d="m 85.888279,164.3055 c 0.872476,-0.14947 1.752583,-0.29691 2.476138,-0.8511 0.897346,-0.51889 1.792202,-1.04212 2.692902,-1.5552 -1.307175,0.75819 -2.616851,1.51211 -3.925317,2.26809 1.643583,-0.98656 3.362582,-1.85586 4.946743,-2.93483 1.050876,-0.79309 1.055601,-2.2151 1.124398,-3.40827 0.08595,-1.12003 0.227952,-2.23261 0.374184,-3.34558 0.143378,-1.69256 0.303422,-3.38544 0.495428,-5.07309 0.147053,-0.71441 0.166195,-1.46203 0.306817,-2.16555 -1.004558,0.71415 -2.092609,1.30119 -3.113532,1.98732 -0.372793,0.70485 0.641097,1.38576 0.729598,2.13695 0.642008,2.17524 1.186949,4.40072 2.253548,6.41968 0.67984,1.37947 1.466948,2.70251 2.190199,4.05793 0.476612,0.57488 0.742843,1.49782 1.509113,1.73346 0.732874,-0.39273 1.334247,-1.00339 1.984712,-1.53675 0.87604,-0.71832 1.1385,-0.0101 0.98518,-1.47593 -0.15332,-1.46581 0.16794,-4.29324 0.30213,-6.43651 0.19591,-1.81295 0.65273,-3.5925 1.2078,-5.32591 0.10566,-0.47476 0.71571,-1.43067 -0.0839,-0.87946 -1.01787,0.47917 -2.03575,0.95833 -3.053622,1.4375 -0.535307,2.28271 -1.167451,4.56584 -1.23864,6.92464 -0.178504,2.12993 -0.136694,4.29085 -0.56,6.39227 0.361536,0.33012 1.883341,0.0125 1.992255,-0.8556 0.172836,-1.14304 -0.39086,-2.22122 -0.720679,-3.28605 0.19308,0.27855 0.816432,1.20216 0.30786,0.43607 -1.521997,-2.1924 -2.816345,-4.55955 -3.599915,-7.12016 -0.446012,-1.27805 -0.618459,-2.62059 -0.864046,-3.9444 -0.08199,-0.59634 -0.281825,-1.18337 -0.887611,-0.62655 -0.912491,0.44515 -1.866791,0.79609 -2.832231,1.10345 -0.154974,0.62881 -0.005,1.40285 -0.112065,2.08585 -0.263507,2.71188 -0.428572,5.43607 -0.86139,8.12836 -0.200506,1.26749 0.0013,2.78258 -1.024452,3.74021 -0.239402,0.24847 -1.031017,0.71086 -0.999611,0.70232 1.155746,-0.66615 2.311489,-1.33231 3.467235,-1.99846 -1.36015,0.79009 -2.731563,1.56195 -4.084478,2.36378 1.150956,-0.56184 2.349995,-1.17115 3.411983,-1.82232 -0.666637,0.0758 -1.275606,0.40712 -1.802695,0.80961 -0.997808,0.63808 -1.996266,1.27619 -2.993669,1.91424 z"
       sodipodi:nodetypes="sccscssccsscccszccccsccsccscccscccccccs" />
    <path
       style="fill:#ffcc00;stroke-width:0.264583"
       id="path175"
       d="m 97.527347,148.74387 c 0.435162,0.77505 1.421668,0.96405 2.234766,0.82279 0.689727,-0.21945 1.235447,0.66726 1.832597,0.16992 0.92103,-0.60196 1.90739,-1.09697 2.85028,-1.66594 -0.34401,-0.80819 -1.36866,-0.9635 -2.09845,-0.78804 -0.72979,0.17546 -1.31115,-0.002 -1.73132,-0.36344 -0.656004,0.4104 -1.572856,0.93391 -2.289353,1.37048 -0.266083,0.15157 -0.532163,0.30314 -0.79852,0.45423 z"
       sodipodi:nodetypes="cccczccc" />
    <path
       style="fill:#ffcc00;stroke-width:0.264583"
       id="path179"
       d="m 85.124529,164.1154 c 1.094814,0.33202 1.456842,0.57331 2.097299,0.29775 0.640457,-0.27555 1.350453,0.57746 1.865577,0.28874 1.023147,-0.69229 2.046295,-1.38459 3.069443,-2.07689 -0.183906,-0.89332 -1.790284,-0.0574 -2.506027,-0.22499 -0.454012,-0.11375 -1.070085,-0.57792 -1.372589,-0.3595 -1.019417,0.73606 -2.105696,1.3893 -3.153703,2.07502 z"
       sodipodi:nodetypes="czcccscc" />
    <path
       style="fill:#ffcc00;stroke-width:0.264583"
       id="path181"
       d="m 76.741602,151.15413 c 0.327845,0.0248 0.636053,0.15617 0.937278,0.27667 0.255672,0.10227 0.522501,0.14414 0.790125,0.20226 0.273224,0.0593 0.494126,-0.0429 0.741986,-0.1037 0.265373,-0.0651 0.518563,-0.0627 0.780585,0.0139 0.124949,0.0365 0.362656,0.15861 0.540054,0.22656 0.122927,0.0471 0.209294,-0.0574 0.299622,-0.11636 l 3.087421,-2.01564 c -0.247555,-0.13249 -0.485627,-0.2296 -0.733956,-0.35105 -0.529082,-0.2367 -0.987343,-0.0748 -1.474803,0.0315 -0.505811,0.11037 -1.002272,-0.18241 -1.446469,-0.31248 -0.15,-0.0439 -0.25707,-0.12419 -0.410557,-0.009 -1.009855,0.75787 -2.074187,1.44031 -3.11128,2.16046 z"
       sodipodi:nodetypes="cssssssccscscc" />
    <path
       style="fill:#ffcc00;stroke-width:0.264583"
       id="path185"
       d="m 84.263146,150.56616 c 0.497143,0.5721 1.028751,0.78748 1.721448,0.58552 0.351557,-0.1025 0.820639,0.0862 0.99557,0.16437 l 3.29838,-2.06676 c -0.47664,-0.43929 -1.06392,-0.47127 -1.622528,-0.37696 -0.468383,0.0791 -0.765455,-0.0111 -1.034748,-0.29222 -1.119202,0.66168 -2.239781,1.32577 -3.358122,1.98594 z"
       sodipodi:nodetypes="csccsccc" />
    <path
       style="fill:#ffcc00;stroke-width:0.264583"
       id="path189"
       d="m 111.0327,148.88078 c -1.21619,-0.46281 -2.68228,-0.50854 -3.80157,0.23054 -0.89372,0.54376 -1.85596,0.97096 -2.73893,1.52876 -1.1536,0.83062 -2.2817,1.94648 -2.46434,3.426 -0.13407,1.12211 -0.07,2.25767 -0.02,3.38235 0.25427,1.33316 1.10692,2.42385 1.89032,3.48981 0.49518,0.71428 1.07113,1.51702 1.99863,1.65123 1.17831,0.23412 2.27395,-0.45572 3.24866,-1.02019 0.74452,-0.48471 1.52696,-0.91811 2.25693,-1.42042 0.82296,-1.16892 1.10294,-2.6099 1.60306,-3.92768 0.54809,-1.5095 0.9481,-3.07958 1.12457,-4.67593 0.0295,-0.9817 -0.0406,-2.11131 -0.85983,-2.78542 -0.47006,-0.40934 -1.12876,-0.70424 -1.75695,-0.56068 -1.14832,0.66706 -2.31304,1.30627 -3.44501,2.00121 -0.0922,0.2812 -0.82608,1.28228 -0.66817,1.31541 1.11529,-0.50129 2.44619,-1.28666 3.56148,-1.78795 0.0751,-0.30668 0.65862,-0.96834 0.61331,-0.89035 -1.03684,0.59343 -2.0737,1.18684 -3.11054,1.78027 0.60357,-0.31997 1.31159,-0.11517 1.75148,0.39907 0.83647,0.97995 0.64274,2.34606 0.41748,3.51064 -0.35404,1.92022 -1.11427,3.73133 -1.79853,5.55016 -0.25691,0.57051 -0.52832,1.19339 -1.07049,1.54976 0.90609,-0.51923 1.8619,-0.95198 2.77522,-1.45211 -0.19285,-0.20526 -0.93834,0.3401 -1.40255,0.21256 -0.99414,0.005 -1.68228,-0.80881 -2.23296,-1.53096 -0.76632,-1.10429 -1.6081,-2.302 -1.59519,-3.70654 -0.0119,-1.13866 -0.081,-2.32958 0.32243,-3.41443 0.47344,-0.99876 1.35186,-1.74782 2.26346,-2.33988 0.0587,-0.19513 -0.77685,0.30768 -1.08131,0.44684 -0.80983,0.43267 -1.63311,0.87028 -2.41198,1.3426 0.5684,0.0639 1.05781,-0.39554 1.64855,-0.38355 0.58048,-0.13437 1.22169,0.0333 1.72613,0.1788 1.08556,-0.69987 2.17095,-1.4006 3.25662,-2.09992 z"
       sodipodi:nodetypes="cccscscscccccssccccsccssccccccscsc" />
  </g>
</svg>
